<svg width="32" height="32" viewBox="0 0 32 32" xmlns="http://www.w3.org/2000/svg">
<path d="M16 32L13.68 29.733C10.9867 27.0881 8.76 24.8065 7 22.8883C5.24 20.97 3.84 19.2552 2.8 17.7439C1.76 16.2035 1.02667 14.7938 0.6 13.515C0.2 12.2361 0 10.9282 0 9.59128C0 6.85922 0.84 4.57766 2.52 2.74659C4.2 0.915531 6.29333 0 8.8 0C10.1867 0 11.5067 0.319709 12.76 0.959128C14.0133 1.59855 15.0933 2.49955 16 3.66213C16.9067 2.49955 17.9867 1.59855 19.24 0.959128C20.4933 0.319709 21.8133 0 23.2 0C25.7067 0 27.8 0.915531 29.48 2.74659C31.16 4.57766 32 6.85922 32 9.59128C32 10.9282 31.7867 12.2361 31.36 13.515C30.96 14.7938 30.24 16.2035 29.2 17.7439C28.16 19.2552 26.76 20.97 25 22.8883C23.24 24.8065 21.0133 27.0881 18.32 29.733L16 32ZM16 27.2916C18.56 24.792 20.6667 22.6558 22.32 20.8828C23.9733 19.0808 25.28 17.5259 26.24 16.218C27.2 14.881 27.8667 13.7039 28.24 12.6866C28.6133 11.6403 28.8 10.6085 28.8 9.59128C28.8 7.84741 28.2667 6.39419 27.2 5.23161C26.1333 4.06903 24.8 3.48774 23.2 3.48774C21.9467 3.48774 20.7867 3.88011 19.72 4.66485C18.6533 5.42053 17.92 6.39419 17.52 7.58583H14.48C14.08 6.39419 13.3467 5.42053 12.28 4.66485C11.2133 3.88011 10.0533 3.48774 8.8 3.48774C7.2 3.48774 5.86667 4.06903 4.8 5.23161C3.73333 6.39419 3.2 7.84741 3.2 9.59128C3.2 10.6085 3.38667 11.6403 3.76 12.6866C4.13333 13.7039 4.8 14.881 5.76 16.218C6.72 17.5259 8.02667 19.0808 9.68 20.8828C11.3333 22.6558 13.44 24.792 16 27.2916Z" />
</svg>
