<svg width="400" height="400" viewBox="0 0 400 400" fill="none" xmlns="http://www.w3.org/2000/svg">
<path d="M200 400C310.457 400 400 310.457 400 200C400 89.5431 310.457 0 200 0C89.5431 0 0 89.5431 0 200C0 310.457 89.5431 400 200 400Z" fill="url(#paint0_linear_2_2568)"/>
<mask id="mask0_2_2568" style="mask-type:luminance" maskUnits="userSpaceOnUse" x="38" y="83" width="116" height="238">
<path d="M153.702 95.8804L73.3074 83.2793L38.1563 307.956L118.551 320.557L153.702 95.8804Z" fill="white"/>
</mask>
<g mask="url(#mask0_2_2568)">
<path d="M83.9522 298.585C92.6878 299.954 98.1358 296.686 100.316 282.749L121.661 146.313L189.835 296.781C195.994 310.065 200.242 316.813 211.926 318.644C222.846 320.356 229.179 315.703 231.127 303.253L256.465 141.295C258.575 127.803 254.696 121.971 246.134 120.629C237.865 119.333 231.67 124.322 229.672 137.095L208.229 274.161L139.208 122.915C134.01 111.518 131.032 102.588 119.422 100.768C109.247 99.1731 99.7135 107.016 98.231 116.493L72.8929 278.451C70.8189 291.708 75.9251 297.327 83.9522 298.585Z" fill="white"/>
</g>
<mask id="mask1_2_2568" style="mask-type:luminance" maskUnits="userSpaceOnUse" x="174" y="99" width="112" height="248">
<path d="M285.03 110.821L211.752 99.3363L174.853 335.176L248.13 346.66L285.03 110.821Z" fill="white"/>
</mask>
<g mask="url(#mask1_2_2568)">
<path d="M83.9524 298.586C92.688 299.955 98.1359 296.686 100.316 282.75L121.662 146.313L189.834 296.781C195.994 310.065 200.242 316.813 211.925 318.644C222.845 320.356 229.178 315.703 231.126 303.253L256.465 141.294C258.576 127.803 254.696 121.971 246.134 120.629C237.865 119.333 231.671 124.322 229.672 137.095L208.228 274.161L139.208 122.915C134.011 111.518 131.032 102.588 119.422 100.768C109.248 99.1731 99.7144 107.017 98.2318 116.493L72.8932 278.451C70.8192 291.708 75.9254 297.328 83.9524 298.586Z" fill="white"/>
</g>
<mask id="mask2_2_2568" style="mask-type:luminance" maskUnits="userSpaceOnUse" x="124" y="35" width="105" height="263">
<path d="M228.686 45.8964L163.419 35.668L124.051 287.267L189.317 297.495L228.686 45.8964Z" fill="white"/>
</mask>
<g mask="url(#mask2_2_2568)">
<path d="M154.493 279.04C163.228 280.409 168.676 277.141 170.856 263.204L192.203 126.767L260.374 277.235C266.534 290.519 270.781 297.267 282.465 299.098C293.385 300.809 299.718 296.157 301.666 283.706L327.005 121.747C329.116 108.256 325.237 102.424 316.675 101.082C308.406 99.7857 302.211 104.775 300.213 117.548L278.768 254.614L209.749 103.369C204.552 91.9714 201.573 83.0413 189.963 81.2215C179.789 79.6268 170.255 87.4703 168.773 96.9465L143.434 258.906C141.359 272.163 146.466 277.782 154.493 279.04Z" fill="white"/>
</g>
<mask id="mask3_2_2568" style="mask-type:luminance" maskUnits="userSpaceOnUse" x="245" y="79" width="115" height="240">
<path d="M359.351 91.8682L281.346 79.642L245.829 306.656L323.834 318.882L359.351 91.8682Z" fill="white"/>
</mask>
<g mask="url(#mask3_2_2568)">
<path d="M154.493 279.039C163.228 280.408 168.676 277.14 170.856 263.203L192.202 126.767L260.375 277.234C266.535 290.519 270.782 297.266 282.466 299.098C293.386 300.809 299.719 296.157 301.667 283.706L327.005 121.748C329.116 108.257 325.236 102.425 316.675 101.083C308.406 99.7867 302.211 104.776 300.213 117.549L278.769 254.614L209.748 103.369C204.551 91.9716 201.572 83.0415 189.962 81.2217C179.787 79.6269 170.254 87.4702 168.772 96.9463L143.433 258.905C141.359 272.161 146.466 277.781 154.493 279.039Z" fill="white"/>
</g>
<defs>
<linearGradient id="paint0_linear_2_2568" x1="169.337" y1="438.953" x2="302.161" y2="-242.158" gradientUnits="userSpaceOnUse">
<stop stop-color="#5F27AC"/>
<stop offset="0.875" stop-color="#CABCD0"/>
</linearGradient>
</defs>
</svg>
